<svg width="690" height="346" viewBox="0 0 690 346" fill="none" xmlns="http://www.w3.org/2000/svg">
<path d="M676.828 345.939C684.069 345.939 689.965 340.064 689.69 332.828C686.395 246.092 650.494 163.591 588.891 101.988C524.191 37.2876 436.439 0.93946 344.939 0.939453C253.44 0.939446 165.688 37.2875 100.987 101.988C39.3843 163.591 3.48384 246.092 0.188222 332.828C-0.0867166 340.064 5.80944 345.939 13.0507 345.939C20.2919 345.939 26.1339 340.064 26.4315 332.829C29.7124 253.05 62.8447 177.215 119.53 120.53C179.312 60.7476 260.394 27.1623 344.939 27.1623C429.484 27.1623 510.566 60.7476 570.349 120.53C627.034 177.215 660.166 253.05 663.447 332.829C663.745 340.065 669.587 345.939 676.828 345.939Z" fill="#303030"/>
</svg>
